<?xml version="1.0" encoding="iso-8859-1"?>
<!-- Generator: Adobe Illustrator 16.0.0, SVG Export Plug-In . SVG Version: 6.00 Build 0)  -->
<!DOCTYPE svg PUBLIC "-//W3C//DTD SVG 1.1//EN" "http://www.w3.org/Graphics/SVG/1.1/DTD/svg11.dtd">
<svg version="1.1" xmlns="http://www.w3.org/2000/svg" xmlns:xlink="http://www.w3.org/1999/xlink" x="0px" y="0px" width="256px"
	 height="256px" viewBox="0 0 256 256" style="enable-background:new 0 0 256 256;" xml:space="preserve">
<g id="Ebene_3" style="display:none;">
	<rect style="display:inline;fill:#1A1A1A;" width="256" height="256"/>
</g>
<g id="Ebene_2" style="display:none;">
</g>
<g id="Ebene_1">
	<polygon style="display:none;fill:#333333;" points="98.182,33 180,33 137.454,108 180,108 98.182,222.818 121.091,138 72,138 	"/>
	<polygon id="Arrow" style="display:none;fill:#666666;" points="100,56 172,128 100,200 118,128 	"/>
	<circle id="Checkpoint" style="display:none;fill:#1A1A1A;" cx="128" cy="128" r="64"/>
	<path id="Checkpoint_1_" style="display:none;fill:#1A1A1A;" d="M128,32c-53.02,0-96,42.98-96,96s42.98,96,96,96s96-42.98,96-96
		S181.02,32,128,32z M128,204c-41.974,0-76-34.026-76-76s34.026-76,76-76s76,34.026,76,76S169.974,204,128,204z"/>
	<g style="opacity:0.5;">
		<g>
			<path d="M94.271,171.705c0,0,0.033-0.337,0.216-0.972c0.187-0.599,0.436-1.527,0.922-2.596c0.942-2.154,2.678-5.07,5.517-7.949
				c1.417-1.434,3.094-2.869,5.029-4.164c0.962-0.66,1.989-1.285,3.075-1.851c1.075-0.603,2.216-1.134,3.402-1.6
				c1.179-0.494,2.404-0.961,3.671-1.29c1.262-0.353,2.55-0.772,3.873-0.938c1.317-0.193,2.651-0.514,3.996-0.567
				c1.345-0.067,2.695-0.134,4.045-0.2l0.393,0.009l0.054,0.004l0.108,0.007l0.216,0.014l0.433,0.027l0.864,0.056l1.726,0.11
				c0.512,0.007,1.295,0.131,1.999,0.249c0.711,0.118,1.42,0.236,2.126,0.354c1.457,0.192,2.653,0.613,3.932,0.971
				c1.261,0.329,2.478,0.802,3.649,1.3c1.181,0.465,2.315,0.996,3.384,1.6c1.08,0.567,2.109,1.175,3.063,1.844
				c1.931,1.284,3.607,2.712,5.025,4.137c2.845,2.856,4.602,5.753,5.563,7.895c0.496,1.062,0.753,1.987,0.946,2.582
				c0.175,0.614,0.232,0.974,0.231,0.974l0.04,0.253c0.041,0.255-0.133,0.495-0.388,0.535c-0.161,0.025-0.317-0.036-0.42-0.147
				c-0.001,0-0.178-0.196-0.554-0.572c-0.378-0.371-0.946-0.904-1.706-1.546c-1.515-1.288-3.833-2.959-6.807-4.618
				c-0.749-0.405-1.518-0.85-2.358-1.221c-0.829-0.392-1.681-0.811-2.597-1.147c-0.904-0.363-1.829-0.745-2.812-1.034
				c-0.974-0.313-1.956-0.669-2.994-0.906c-1.028-0.263-2.065-0.569-3.148-0.736c-1.075-0.18-2.16-0.454-3.261-0.537
				c-1.107-0.103-2.184-0.291-3.336-0.33c-1.138-0.042-2.279-0.084-3.421-0.126c-1.133,0.032-2.266,0.064-3.395,0.096
				c-1.129,0.034-2.242,0.212-3.353,0.308c-1.116,0.075-2.191,0.353-3.271,0.522c-1.083,0.159-2.119,0.472-3.149,0.728
				c-1.039,0.23-2.017,0.597-2.992,0.903c-0.983,0.287-1.904,0.677-2.81,1.036c-0.917,0.336-1.762,0.764-2.593,1.154
				c-0.84,0.371-1.603,0.824-2.352,1.229c-1.483,0.834-2.799,1.679-3.936,2.469c-1.135,0.794-2.08,1.548-2.839,2.19
				c-0.754,0.647-1.319,1.186-1.694,1.56c-0.361,0.367-0.553,0.583-0.553,0.583c-0.167,0.188-0.455,0.204-0.642,0.037
				c-0.112-0.1-0.163-0.242-0.151-0.381L94.271,171.705z"/>
		</g>
		<g>
			<path d="M85.801,146.585c0,0,0.019-0.107,0.057-0.316c0.049-0.207,0.121-0.55,0.247-0.941c0.232-0.794,0.626-1.941,1.285-3.286
				c0.647-1.358,1.556-2.933,2.77-4.588c0.594-0.854,1.295-1.677,2.049-2.544c0.751-0.884,1.608-1.713,2.519-2.577
				c0.909-0.883,1.922-1.683,2.986-2.515c1.062-0.854,2.226-1.59,3.434-2.359c1.203-0.804,2.506-1.443,3.842-2.119
				c1.328-0.737,2.751-1.254,4.196-1.809c0.725-0.272,1.455-0.575,2.204-0.817c0.749-0.238,1.505-0.447,2.272-0.652
				c0.771-0.197,1.545-0.396,2.324-0.595c0.784-0.2,1.572-0.306,2.365-0.45c0.793-0.14,1.595-0.242,2.398-0.362
				c0.804-0.127,1.613-0.226,2.418-0.259c1.613-0.12,3.239-0.163,4.863-0.215l0.537,0.013l0.131,0.006l0.261,0.012l0.523,0.025
				l1.046,0.049c0.696,0.027,1.392,0.097,2.086,0.143c0.364,0.031,0.656,0.04,1.078,0.09l1.291,0.179
				c0.858,0.125,1.714,0.235,2.561,0.389c1.741,0.248,3.254,0.673,4.785,1.077c0.762,0.217,1.516,0.425,2.26,0.661
				c0.744,0.252,1.47,0.554,2.191,0.827c0.717,0.28,1.427,0.557,2.131,0.832c0.701,0.292,1.378,0.64,2.043,0.98
				c1.329,0.68,2.632,1.301,3.826,2.114c1.201,0.771,2.367,1.488,3.423,2.347c1.061,0.831,2.078,1.613,2.983,2.499
				c0.909,0.86,1.771,1.674,2.521,2.559c0.755,0.862,1.463,1.671,2.058,2.525c0.605,0.826,1.157,1.606,1.608,2.393
				c0.466,0.755,0.866,1.483,1.189,2.163c0.67,1.334,1.073,2.478,1.314,3.267c0.127,0.388,0.193,0.722,0.245,0.927
				c0.053,0.22,0.08,0.333,0.08,0.333l0.095,0.397c0.09,0.373-0.141,0.748-0.514,0.838c-0.227,0.054-0.456-0.012-0.62-0.153
				c0,0-0.234-0.205-0.738-0.599c-0.505-0.386-1.259-0.945-2.264-1.597c-1.004-0.652-2.245-1.417-3.728-2.19
				c-0.734-0.397-1.523-0.804-2.379-1.189c-0.422-0.203-0.854-0.411-1.298-0.624c-0.452-0.194-0.914-0.393-1.387-0.595
				c-0.473-0.201-0.955-0.406-1.446-0.615c-0.502-0.186-1.013-0.375-1.532-0.567c-0.521-0.188-1.044-0.396-1.586-0.578
				c-0.547-0.17-1.101-0.343-1.663-0.518c-0.563-0.172-1.128-0.362-1.71-0.523c-0.586-0.148-1.179-0.298-1.778-0.449
				c-0.598-0.153-1.203-0.308-1.813-0.464c-0.617-0.128-1.241-0.256-1.87-0.386s-1.263-0.261-1.901-0.393
				c-0.642-0.113-1.295-0.195-1.948-0.295c-1.308-0.189-2.632-0.415-3.964-0.497c-1.345-0.093-2.646-0.286-4.049-0.302
				c-1.376-0.038-2.757-0.076-4.138-0.113c-1.371,0.027-2.742,0.056-4.107,0.084c-1.368,0.009-2.717,0.193-4.063,0.278
				c-1.35,0.074-2.668,0.301-3.978,0.48c-0.653,0.099-1.307,0.173-1.948,0.29c-0.639,0.13-1.272,0.259-1.901,0.387
				s-1.252,0.255-1.87,0.38c-0.61,0.157-1.214,0.313-1.812,0.467c-0.599,0.15-1.192,0.3-1.778,0.446
				c-0.577,0.178-1.146,0.353-1.708,0.526c-0.562,0.175-1.116,0.348-1.662,0.518c-0.536,0.197-1.064,0.392-1.583,0.582
				c-0.519,0.193-1.029,0.383-1.53,0.569c-0.491,0.211-0.972,0.418-1.443,0.621c-0.471,0.204-0.933,0.404-1.384,0.601
				c-0.442,0.215-0.873,0.425-1.294,0.63c-0.854,0.388-1.64,0.801-2.373,1.201c-1.477,0.781-2.713,1.553-3.712,2.212
				c-1,0.658-1.749,1.223-2.251,1.613c-0.241,0.195-0.425,0.345-0.55,0.445c-0.127,0.11-0.192,0.167-0.192,0.167
				c-0.283,0.246-0.711,0.216-0.957-0.067c-0.139-0.16-0.19-0.367-0.156-0.562L85.801,146.585z"/>
		</g>
		<g>
			<path d="M74.602,119.652c0,0,0.036-0.135,0.105-0.396c0.083-0.255,0.215-0.691,0.41-1.166c0.188-0.483,0.431-1.106,0.759-1.76
				c0.314-0.682,0.712-1.447,1.191-2.249c0.463-0.843,1.039-1.698,1.682-2.616c0.629-0.965,1.396-1.859,2.212-2.859
				c1.654-1.973,3.69-3.99,6.078-5.965c2.4-1.938,5.134-3.891,8.194-5.558c1.523-0.889,3.125-1.637,4.791-2.38
				c1.661-0.789,3.391-1.411,5.168-2.019c0.89-0.294,1.788-0.628,2.703-0.886c0.913-0.238,1.833-0.498,2.766-0.721
				c0.936-0.219,1.877-0.44,2.823-0.662c0.951-0.202,1.903-0.324,2.864-0.489c0.959-0.159,1.929-0.268,2.9-0.403
				c0.486-0.061,0.972-0.135,1.46-0.186l1.46-0.095c1.948-0.141,3.91-0.183,5.87-0.239l3.013,0.112
				c0.861,0.028,1.721,0.113,2.579,0.166l1.296,0.096l1.546,0.198c1.028,0.137,2.053,0.255,3.067,0.428
				c1.003,0.173,2.052,0.3,2.996,0.517c0.941,0.224,1.879,0.447,2.811,0.668c0.924,0.246,1.842,0.491,2.753,0.733
				c0.909,0.262,1.804,0.599,2.689,0.893c1.769,0.617,3.491,1.239,5.145,2.027c1.658,0.745,3.255,1.49,4.771,2.379
				c3.048,1.668,5.776,3.604,8.173,5.534c2.387,1.96,4.425,3.966,6.085,5.924c0.82,0.991,1.589,1.881,2.223,2.838
				c0.648,0.91,1.228,1.76,1.696,2.597c0.485,0.795,0.888,1.556,1.207,2.233c0.333,0.649,0.581,1.268,0.773,1.748
				c0.199,0.472,0.32,0.895,0.406,1.148c0.09,0.272,0.137,0.414,0.137,0.414l0.173,0.526c0.16,0.486-0.104,1.009-0.589,1.169
				c-0.275,0.09-0.566,0.043-0.793-0.102c0,0-0.081-0.052-0.238-0.154c-0.174-0.104-0.415-0.266-0.758-0.461
				c-0.677-0.398-1.691-0.958-3.014-1.624c-0.657-0.339-1.393-0.7-2.211-1.062c-0.807-0.383-1.697-0.761-2.656-1.146
				c-0.948-0.409-1.984-0.784-3.074-1.179c-1.081-0.417-2.241-0.796-3.448-1.198c-2.417-0.794-5.073-1.545-7.917-2.2
				c-1.41-0.371-2.891-0.622-4.393-0.92c-1.499-0.311-3.045-0.56-4.617-0.807c-0.786-0.124-1.579-0.249-2.377-0.375
				c-0.804-0.091-1.613-0.184-2.428-0.277c-1.63-0.194-3.277-0.386-4.934-0.466c-0.828-0.056-1.659-0.112-2.493-0.168
				c-0.828-0.068-1.673-0.11-2.539-0.113c-1.704-0.034-3.414-0.068-5.124-0.102c-1.7,0.025-3.4,0.049-5.093,0.074
				c-1.696-0.01-3.373,0.179-5.044,0.257c-1.673,0.072-3.32,0.262-4.948,0.449c-0.814,0.09-1.624,0.179-2.428,0.268
				c-0.798,0.125-1.59,0.248-2.376,0.371c-1.574,0.239-3.118,0.494-4.616,0.803c-1.501,0.295-2.981,0.548-4.391,0.918
				c-2.842,0.654-5.497,1.409-7.91,2.209c-1.206,0.403-2.365,0.787-3.443,1.209c-1.089,0.397-2.122,0.777-3.068,1.189
				c-0.958,0.388-1.846,0.772-2.65,1.159c-0.816,0.366-1.549,0.732-2.204,1.074c-1.318,0.674-2.328,1.241-3.001,1.643
				c-0.342,0.199-0.571,0.355-0.743,0.458c-0.172,0.114-0.261,0.173-0.261,0.173c-0.413,0.274-0.969,0.162-1.243-0.25
				c-0.147-0.222-0.183-0.485-0.121-0.724L74.602,119.652z"/>
		</g>
	</g>
</g>
</svg>